<svg xmlns="http://www.w3.org/2000/svg" x="0px" y="0px" width="50" height="50" viewBox="0,0,256,256">
<defs><clipPath id="clip-1"><path d="M0,256v-256h256v256zM158.69156,114.31822l-52.13867,-25.88444c-1.47911,-0.73956 -3.328,-1.10933 -4.80711,-1.10933c-8.13511,0 -14.42133,6.656 -14.42133,14.42133v52.13867c0,8.13511 6.28622,14.79111 14.42133,14.79111c1.84889,0 3.328,-0.36978 4.80711,-1.10933l51.76889,-25.88444c6.656,-2.95822 10.35378,-7.76533 10.35378,-13.68178c0,-6.656 -5.17689,-11.46311 -9.984,-13.68178z" id="overlayBgMask" fill="none"></path></clipPath></defs><g clip-path="url(#clip-1)" fill="none" fill-rule="nonzero" stroke="none" stroke-width="1" stroke-linecap="butt" stroke-linejoin="miter" stroke-miterlimit="10" stroke-dasharray="" stroke-dashoffset="0" font-family="none" font-weight="none" font-size="none" text-anchor="none" style="mix-blend-mode: normal"><g transform="scale(5.12,5.12)" fill="#000000"><path d="M44.89844,14.5c-0.39844,-2.19922 -2.29687,-3.80078 -4.5,-4.30078c-3.29687,-0.69922 -9.39844,-1.19922 -16,-1.19922c-6.59766,0 -12.79687,0.5 -16.09766,1.19922c-2.19922,0.5 -4.10156,2 -4.5,4.30078c-0.40234,2.5 -0.80078,6 -0.80078,10.5c0,4.5 0.39844,8 0.89844,10.5c0.40234,2.19922 2.30078,3.80078 4.5,4.30078c3.5,0.69922 9.5,1.19922 16.10156,1.19922c6.60156,0 12.60156,-0.5 16.10156,-1.19922c2.19922,-0.5 4.09766,-2 4.5,-4.30078c0.39844,-2.5 0.89844,-6.10156 1,-10.5c-0.20312,-4.5 -0.70312,-8 -1.20312,-10.5zM19,32v-14l12.19922,7z"></path></g></g><g fill="#ffffff" fill-rule="nonzero" stroke="none" stroke-width="1" stroke-linecap="butt" stroke-linejoin="miter" stroke-miterlimit="10" stroke-dasharray="" stroke-dashoffset="0" font-family="none" font-weight="none" font-size="none" text-anchor="none" style="mix-blend-mode: normal"><g transform="translate(94.72,94.72) scale(3.69778,3.69778)" id="overlay"><path d="M1.9,18c-1,0 -1.9,-0.9 -1.9,-1.9v-14.2c0,-1.1 0.8,-1.9 1.9,-1.9c0.2,0 0.3,0 0.4,0.1l14.1,7c0.4,0.2 1.6,0.8 1.6,1.9c0,1.1 -1.2,1.7 -1.6,1.9l-14.1,7c-0.1,0.1 -0.3,0.1 -0.4,0.1z"></path></g></g>
</svg>